<svg width="329" height="89" viewBox="0 0 329 89" fill="none" xmlns="http://www.w3.org/2000/svg">
<rect width="329" height="89" fill="white"/>
<path d="M39.632 56.288C38.7573 56.288 37.904 56.16 37.072 55.904C36.2507 55.648 35.3813 55.248 34.464 54.704L33.2 56H32.544L31.952 47.888L32.816 47.712C33.456 50.2187 34.2987 52.0373 35.344 53.168C36.4 54.2987 37.792 54.864 39.52 54.864C40.9707 54.864 42.1173 54.5173 42.96 53.824C43.8027 53.12 44.224 52.1707 44.224 50.976C44.224 50.0373 43.9307 49.2 43.344 48.464C42.768 47.7173 41.8187 46.9707 40.496 46.224L38.048 44.928C36.0533 43.8507 34.624 42.7787 33.76 41.712C32.896 40.6453 32.464 39.4027 32.464 37.984C32.464 36.704 32.7787 35.5627 33.408 34.56C34.0373 33.5467 34.896 32.752 35.984 32.176C37.0827 31.5893 38.3147 31.296 39.68 31.296C41.5467 31.296 43.1733 31.952 44.56 33.264L45.536 31.6H46.224L46.512 38.592H45.6C45.0987 36.5973 44.3733 35.1253 43.424 34.176C42.4853 33.216 41.2853 32.736 39.824 32.736C38.64 32.736 37.7013 33.0507 37.008 33.68C36.3253 34.3093 35.984 35.1733 35.984 36.272C35.984 37.264 36.3093 38.1493 36.96 38.928C37.6213 39.7067 38.7307 40.5067 40.288 41.328L42.672 42.608C44.304 43.472 45.4827 44.432 46.208 45.488C46.944 46.544 47.312 47.7547 47.312 49.12C47.312 50.4747 46.9707 51.696 46.288 52.784C45.616 53.8613 44.6987 54.7147 43.536 55.344C42.384 55.9733 41.0827 56.288 39.632 56.288ZM55.8283 56.336C54.6443 56.336 53.7429 56 53.1243 55.328C52.5056 54.656 52.1963 53.6907 52.1963 52.432V40.4H50.1163L50.0203 39.824L54.8203 35.056L55.4443 35.12V39.216H60.0203L59.7483 40.4H55.4443V52.112C55.4443 53.8613 56.0736 54.736 57.3323 54.736C57.7589 54.736 58.1803 54.624 58.5963 54.4C59.0229 54.176 59.3856 53.8667 59.6843 53.472L60.2443 53.968C59.7536 54.6933 59.1136 55.2693 58.3243 55.696C57.5456 56.1227 56.7136 56.336 55.8283 56.336ZM64.3568 64.24C63.5354 64.24 62.8688 64.0373 62.3568 63.632C61.8448 63.2373 61.5888 62.7093 61.5888 62.048C61.5888 61.5253 61.7541 61.1093 62.0848 60.8C62.4261 60.4907 62.8688 60.336 63.4128 60.336C63.8394 60.336 64.1754 60.448 64.4208 60.672C64.6661 60.9067 64.8421 61.2907 64.9488 61.824C65.0128 62.2293 65.0874 62.4907 65.1727 62.608C65.2688 62.736 65.4288 62.8 65.6528 62.8C65.9941 62.8 66.3141 62.5973 66.6128 62.192C66.9221 61.7973 67.2261 61.1467 67.5248 60.24L68.8208 56.336L62.5648 41.184C62.3728 40.7893 62.1061 40.496 61.7648 40.304C61.4234 40.112 60.9274 39.984 60.2767 39.92V39.216H68.4528V39.92C67.7168 39.9627 67.1888 40.0267 66.8688 40.112C66.5488 40.1867 66.3781 40.3253 66.3568 40.528C66.3354 40.7307 66.3994 41.0507 66.5488 41.488L70.4048 51.344H70.5488L73.5568 42.4C73.8661 41.5573 73.8501 40.9493 73.5088 40.576C73.1781 40.192 72.4528 39.9733 71.3328 39.92V39.216H78.5168V39.92C77.7168 40.048 77.0928 40.2027 76.6448 40.384C76.2074 40.5547 75.8714 40.8 75.6368 41.12C75.4021 41.4293 75.1834 41.8667 74.9808 42.432L68.6608 60.464C68.4368 61.136 68.1914 61.6907 67.9248 62.128C67.6581 62.576 67.3861 62.928 67.1088 63.184C66.4261 63.888 65.5088 64.24 64.3568 64.24ZM78.829 56V55.296L81.261 54.8V32.56L78.861 31.712V31.216L84.189 29.712H84.525V54.8L86.925 55.296V56H78.829ZM96.825 56.336C95.2783 56.336 93.9183 55.984 92.745 55.28C91.5823 54.5653 90.6757 53.5733 90.025 52.304C89.385 51.024 89.065 49.5467 89.065 47.872C89.065 46.0907 89.4223 44.528 90.137 43.184C90.8623 41.84 91.8703 40.7893 93.161 40.032C94.4623 39.2747 95.9663 38.896 97.673 38.896C99.785 38.896 101.401 39.5093 102.521 40.736C103.652 41.9627 104.238 43.76 104.281 46.128L104.057 46.32H91.657V45.392L100.617 45.072C100.692 44.7947 100.729 44.3733 100.729 43.808C100.729 41.248 99.6037 39.968 97.353 39.968C95.8063 39.968 94.6117 40.576 93.769 41.792C92.937 42.9973 92.521 44.7093 92.521 46.928C92.521 51.568 94.3237 53.888 97.929 53.888C100.276 53.888 102.073 53.0347 103.321 51.328L103.913 51.696C103.358 53.168 102.457 54.3093 101.209 55.12C99.9717 55.9307 98.5103 56.336 96.825 56.336ZM115.163 56.288C114.289 56.288 113.435 56.16 112.603 55.904C111.782 55.648 110.913 55.248 109.995 54.704L108.731 56H108.075L107.483 47.888L108.347 47.712C108.987 50.2187 109.83 52.0373 110.875 53.168C111.931 54.2987 113.323 54.864 115.051 54.864C116.502 54.864 117.649 54.5173 118.491 53.824C119.334 53.12 119.755 52.1707 119.755 50.976C119.755 50.0373 119.462 49.2 118.875 48.464C118.299 47.7173 117.35 46.9707 116.027 46.224L113.579 44.928C111.585 43.8507 110.155 42.7787 109.291 41.712C108.427 40.6453 107.995 39.4027 107.995 37.984C107.995 36.704 108.31 35.5627 108.939 34.56C109.569 33.5467 110.427 32.752 111.515 32.176C112.614 31.5893 113.846 31.296 115.211 31.296C117.078 31.296 118.705 31.952 120.091 33.264L121.067 31.6H121.755L122.043 38.592H121.131C120.63 36.5973 119.905 35.1253 118.955 34.176C118.017 33.216 116.817 32.736 115.355 32.736C114.171 32.736 113.233 33.0507 112.539 33.68C111.857 34.3093 111.515 35.1733 111.515 36.272C111.515 37.264 111.841 38.1493 112.491 38.928C113.153 39.7067 114.262 40.5067 115.819 41.328L118.203 42.608C119.835 43.472 121.014 44.432 121.739 45.488C122.475 46.544 122.843 47.7547 122.843 49.12C122.843 50.4747 122.502 51.696 121.819 52.784C121.147 53.8613 120.23 54.7147 119.067 55.344C117.915 55.9733 116.614 56.288 115.163 56.288ZM129.875 56.336C128.734 56.336 127.806 55.9787 127.091 55.264C126.387 54.5493 126.035 53.6213 126.035 52.48C126.035 51.5413 126.323 50.7307 126.899 50.048C127.475 49.3653 128.403 48.768 129.683 48.256C130.974 47.7333 132.675 47.2587 134.787 46.832V43.84C134.787 42.4853 134.601 41.536 134.227 40.992C133.865 40.448 133.235 40.176 132.339 40.176C131.454 40.176 130.75 40.3893 130.227 40.816C129.705 41.2427 129.443 41.8187 129.443 42.544C129.443 42.7467 129.454 42.9493 129.475 43.152C129.507 43.344 129.523 43.5307 129.523 43.712C129.523 44.256 129.358 44.704 129.027 45.056C128.707 45.408 128.297 45.584 127.795 45.584C127.337 45.584 126.963 45.4347 126.675 45.136C126.398 44.8373 126.259 44.448 126.259 43.968C126.259 43.2747 126.558 42.5653 127.155 41.84C127.763 41.104 128.563 40.4747 129.555 39.952C130.878 39.248 132.313 38.896 133.859 38.896C134.787 38.896 135.571 39.04 136.211 39.328C136.862 39.616 137.331 40.0267 137.619 40.56C137.79 40.9227 137.902 41.3813 137.955 41.936C138.019 42.4907 138.051 43.4187 138.051 44.72V51.872C138.051 52.9067 138.131 53.6107 138.291 53.984C138.462 54.3573 138.777 54.544 139.235 54.544C139.758 54.544 140.265 54.2453 140.755 53.648L141.331 54.192C140.809 54.9493 140.275 55.4987 139.731 55.84C139.198 56.1707 138.574 56.336 137.859 56.336C136.995 56.336 136.323 56.1013 135.843 55.632C135.363 55.1627 135.043 54.448 134.883 53.488H134.787C134.179 54.3627 133.443 55.056 132.579 55.568C131.715 56.08 130.814 56.336 129.875 56.336ZM131.475 54.304C132.137 54.304 132.755 54.1333 133.331 53.792C133.907 53.44 134.393 52.9547 134.787 52.336V47.824C133.358 48.1013 132.233 48.4053 131.411 48.736C130.601 49.0667 130.025 49.472 129.683 49.952C129.353 50.4213 129.187 51.0133 129.187 51.728C129.187 52.5493 129.379 53.184 129.763 53.632C130.158 54.08 130.729 54.304 131.475 54.304ZM148.451 56.336L142.659 41.28C142.467 40.7787 142.232 40.4427 141.955 40.272C141.677 40.0907 141.139 39.9733 140.338 39.92V39.216H148.579V39.92C147.672 39.952 147.075 40.032 146.787 40.16C146.499 40.2773 146.355 40.464 146.355 40.72C146.355 40.9653 146.419 41.264 146.547 41.616L150.163 51.872H150.291L153.667 42.304C153.859 41.76 153.955 41.344 153.955 41.056C153.955 40.7467 153.816 40.5173 153.539 40.368C153.261 40.208 152.653 40.0587 151.715 39.92V39.216H158.274V39.92C157.485 40.048 156.888 40.2027 156.483 40.384C156.077 40.5547 155.773 40.7947 155.571 41.104C155.379 41.4133 155.187 41.8293 154.995 42.352L149.97 56.336H148.451ZM165.763 56.336L159.971 41.28C159.779 40.7787 159.544 40.4427 159.267 40.272C158.99 40.0907 158.451 39.9733 157.651 39.92V39.216H165.891V39.92C164.984 39.952 164.387 40.032 164.099 40.16C163.811 40.2773 163.667 40.464 163.667 40.72C163.667 40.9653 163.731 41.264 163.859 41.616L167.475 51.872H167.603L170.979 42.304C171.171 41.76 171.267 41.344 171.267 41.056C171.267 40.7467 171.128 40.5173 170.851 40.368C170.574 40.208 169.966 40.0587 169.027 39.92V39.216H175.587V39.92C174.798 40.048 174.2 40.2027 173.795 40.384C173.39 40.5547 173.086 40.7947 172.883 41.104C172.691 41.4133 172.499 41.8293 172.307 42.352L167.283 56.336H165.763ZM179.076 64.24C178.254 64.24 177.588 64.0373 177.076 63.632C176.564 63.2373 176.308 62.7093 176.308 62.048C176.308 61.5253 176.473 61.1093 176.804 60.8C177.145 60.4907 177.588 60.336 178.132 60.336C178.558 60.336 178.894 60.448 179.14 60.672C179.385 60.9067 179.561 61.2907 179.668 61.824C179.732 62.2293 179.806 62.4907 179.891 62.608C179.988 62.736 180.148 62.8 180.372 62.8C180.713 62.8 181.033 62.5973 181.332 62.192C181.641 61.7973 181.945 61.1467 182.244 60.24L183.54 56.336L177.284 41.184C177.092 40.7893 176.825 40.496 176.484 40.304C176.142 40.112 175.646 39.984 174.995 39.92V39.216H183.172V39.92C182.436 39.9627 181.908 40.0267 181.588 40.112C181.268 40.1867 181.097 40.3253 181.076 40.528C181.054 40.7307 181.118 41.0507 181.268 41.488L185.124 51.344H185.268L188.276 42.4C188.585 41.5573 188.569 40.9493 188.228 40.576C187.897 40.192 187.172 39.9733 186.052 39.92V39.216H193.236V39.92C192.436 40.048 191.812 40.2027 191.364 40.384C190.926 40.5547 190.59 40.8 190.356 41.12C190.121 41.4293 189.902 41.8667 189.7 42.432L183.38 60.464C183.156 61.136 182.91 61.6907 182.644 62.128C182.377 62.576 182.105 62.928 181.828 63.184C181.145 63.888 180.228 64.24 179.076 64.24ZM217.299 56V55.232L220.131 54.592V33.008L217.299 32.4V31.632H226.531V32.448L223.731 33.008V54.592L226.531 55.264V56H217.299ZM201.939 56V55.232L204.787 54.592V33.008L201.939 32.4V31.632H211.187V32.4L208.387 33.008V54.592L211.187 55.232V56H201.939ZM206.867 43.84V42.496H221.715V43.84H206.867ZM233.032 56.336C231.89 56.336 230.962 55.9787 230.248 55.264C229.544 54.5493 229.192 53.6213 229.192 52.48C229.192 51.5413 229.48 50.7307 230.056 50.048C230.632 49.3653 231.56 48.768 232.84 48.256C234.13 47.7333 235.832 47.2587 237.944 46.832V43.84C237.944 42.4853 237.757 41.536 237.384 40.992C237.021 40.448 236.392 40.176 235.496 40.176C234.61 40.176 233.906 40.3893 233.384 40.816C232.861 41.2427 232.6 41.8187 232.6 42.544C232.6 42.7467 232.61 42.9493 232.632 43.152C232.664 43.344 232.68 43.5307 232.68 43.712C232.68 44.256 232.514 44.704 232.184 45.056C231.864 45.408 231.453 45.584 230.952 45.584C230.493 45.584 230.12 45.4347 229.832 45.136C229.554 44.8373 229.416 44.448 229.416 43.968C229.416 43.2747 229.714 42.5653 230.312 41.84C230.92 41.104 231.72 40.4747 232.712 39.952C234.034 39.248 235.469 38.896 237.016 38.896C237.944 38.896 238.728 39.04 239.368 39.328C240.018 39.616 240.488 40.0267 240.776 40.56C240.946 40.9227 241.058 41.3813 241.112 41.936C241.176 42.4907 241.208 43.4187 241.208 44.72V51.872C241.208 52.9067 241.288 53.6107 241.448 53.984C241.618 54.3573 241.933 54.544 242.392 54.544C242.914 54.544 243.421 54.2453 243.912 53.648L244.488 54.192C243.965 54.9493 243.432 55.4987 242.888 55.84C242.354 56.1707 241.73 56.336 241.016 56.336C240.152 56.336 239.48 56.1013 239 55.632C238.52 55.1627 238.2 54.448 238.04 53.488H237.944C237.336 54.3627 236.6 55.056 235.736 55.568C234.872 56.08 233.97 56.336 233.032 56.336ZM234.632 54.304C235.293 54.304 235.912 54.1333 236.488 53.792C237.064 53.44 237.549 52.9547 237.944 52.336V47.824C236.514 48.1013 235.389 48.4053 234.568 48.736C233.757 49.0667 233.181 49.472 232.84 49.952C232.509 50.4213 232.344 51.0133 232.344 51.728C232.344 52.5493 232.536 53.184 232.92 53.632C233.314 54.08 233.885 54.304 234.632 54.304ZM251.607 56.336L245.815 41.28C245.623 40.7787 245.388 40.4427 245.111 40.272C244.833 40.0907 244.295 39.9733 243.495 39.92V39.216H251.735V39.92C250.828 39.952 250.231 40.032 249.943 40.16C249.655 40.2773 249.511 40.464 249.511 40.72C249.511 40.9653 249.575 41.264 249.703 41.616L253.319 51.872H253.447L256.823 42.304C257.015 41.76 257.111 41.344 257.111 41.056C257.111 40.7467 256.972 40.5173 256.695 40.368C256.417 40.208 255.809 40.0587 254.871 39.92V39.216H261.431V39.92C260.641 40.048 260.044 40.2027 259.639 40.384C259.233 40.5547 258.929 40.7947 258.727 41.104C258.535 41.4133 258.343 41.8293 258.151 42.352L253.127 56.336H251.607ZM269.356 56.336C267.81 56.336 266.45 55.984 265.276 55.28C264.114 54.5653 263.207 53.5733 262.556 52.304C261.916 51.024 261.596 49.5467 261.596 47.872C261.596 46.0907 261.954 44.528 262.668 43.184C263.394 41.84 264.402 40.7893 265.692 40.032C266.994 39.2747 268.498 38.896 270.204 38.896C272.316 38.896 273.932 39.5093 275.052 40.736C276.183 41.9627 276.77 43.76 276.812 46.128L276.588 46.32H264.188V45.392L273.148 45.072C273.223 44.7947 273.26 44.3733 273.26 43.808C273.26 41.248 272.135 39.968 269.884 39.968C268.338 39.968 267.143 40.576 266.3 41.792C265.468 42.9973 265.052 44.7093 265.052 46.928C265.052 51.568 266.855 53.888 270.46 53.888C272.807 53.888 274.604 53.0347 275.852 51.328L276.444 51.696C275.89 53.168 274.988 54.3093 273.74 55.12C272.503 55.9307 271.042 56.336 269.356 56.336ZM289.455 56V55.296L291.791 54.832V44.56C291.791 43.2907 291.535 42.3467 291.023 41.728C290.511 41.0987 289.684 40.784 288.543 40.784C286.868 40.784 285.476 41.5467 284.367 43.072V41.744C285.263 40.848 286.244 40.1493 287.311 39.648C288.377 39.1467 289.439 38.896 290.495 38.896C293.535 38.896 295.055 40.3307 295.055 43.2V54.832L297.423 55.296V56H289.455ZM279.039 56V55.296L281.439 54.8V41.792L279.071 40.912V40.448L284.191 38.896H284.543V41.728L284.703 41.888V54.8L287.055 55.296V56H279.039Z" fill="black"/>
</svg>
